<?xml version="1.0" standalone="no"?>
<!DOCTYPE svg PUBLIC "-//W3C//DTD SVG 20010904//EN"
 "http://www.w3.org/TR/2001/REC-SVG-20010904/DTD/svg10.dtd">
<svg version="1.0" xmlns="http://www.w3.org/2000/svg"
 width="584.000000pt" height="582.000000pt" viewBox="0 0 584.000000 582.000000"
 preserveAspectRatio="xMidYMid meet">

<g transform="translate(0.000000,582.000000) scale(0.100000,-0.100000)"
fill="#000000" stroke="none">
<path d="M1345 5766 c-22 -30 -54 -61 -72 -70 -44 -21 -122 -136 -193 -281
-67 -138 -72 -168 -58 -329 6 -61 11 -163 12 -226 1 -100 4 -122 25 -163 25
-52 91 -122 154 -164 41 -29 47 -43 16 -43 -34 0 -57 18 -85 65 -14 25 -27 45
-28 45 -2 0 -3 -16 -4 -36 -1 -20 -8 -47 -17 -60 -15 -23 -15 -24 11 -24 29 0
28 5 12 -105 -2 -16 8 -24 55 -40 55 -19 58 -22 55 -50 -3 -27 0 -30 27 -33
25 -2 33 -10 48 -47 10 -24 49 -79 87 -123 38 -44 66 -83 62 -87 -4 -5 -1 -5
6 -1 7 4 28 -5 51 -24 83 -65 120 -75 286 -75 135 0 154 2 194 22 25 12 46 21
47 20 1 -1 6 -33 12 -72 l10 -70 -1 83 c-1 77 1 83 23 99 49 32 132 127 160
182 30 60 70 186 69 217 0 10 -15 -27 -33 -83 -51 -158 -80 -200 -213 -310
-85 -70 -112 -78 -273 -78 -134 0 -136 1 -204 35 -48 24 -92 58 -145 111 -130
132 -158 196 -166 390 -2 53 -9 116 -14 140 -17 74 -16 124 3 164 19 38 37
141 29 161 -2 7 0 15 5 18 5 3 12 -9 15 -27 10 -63 48 -146 75 -166 30 -21 98
-39 88 -23 -3 5 -21 17 -40 26 -45 21 -79 90 -84 171 -4 57 -2 63 27 94 17 18
31 30 31 26 0 -3 12 3 26 14 21 17 41 21 98 21 75 0 146 -15 146 -30 0 -5 11
-20 25 -34 19 -19 25 -35 25 -70 0 -62 -35 -150 -71 -181 -19 -15 -25 -25 -16
-25 9 0 29 11 45 25 31 26 62 113 62 173 0 21 7 35 19 42 25 13 100 13 138 -1
28 -9 31 -15 38 -66 10 -83 30 -141 57 -163 30 -25 46 -26 24 -1 -30 33 -56
118 -56 182 0 48 3 60 14 56 8 -3 13 1 12 11 -2 25 79 62 134 62 66 0 149 -33
189 -76 31 -34 33 -40 28 -85 -3 -27 -16 -70 -28 -96 -12 -27 -21 -52 -20 -57
1 -4 -4 -15 -11 -24 -12 -13 -10 -14 9 -3 13 6 30 25 39 42 8 17 18 29 21 26
6 -7 -15 -218 -28 -276 -5 -24 -8 -46 -5 -48 5 -5 125 155 165 222 32 53 81
222 81 280 0 18 7 52 15 75 22 61 19 200 -5 296 -38 148 -146 389 -210 467
l-31 37 -477 0 -477 -1 -40 -53z m465 -203 c14 -18 20 -37 18 -55 -5 -32 7
-36 35 -10 19 16 19 16 12 -7 -8 -25 -1 -26 48 -6 14 6 17 1 17 -30 0 -58 -45
-138 -111 -199 l-59 -55 55 -12 c46 -10 61 -10 95 4 34 13 40 13 40 1 0 -22
86 -18 137 7 24 11 56 37 72 57 25 29 32 33 45 23 20 -17 39 -77 33 -107 -3
-16 0 -24 10 -24 44 0 123 -115 123 -179 0 -23 -1 -24 -20 -6 -11 10 -20 26
-20 36 0 28 -44 73 -102 102 -40 20 -68 27 -113 27 -70 0 -186 -17 -199 -30
-13 -13 3 -69 27 -92 21 -20 21 -21 2 -14 -69 25 -106 29 -162 19 -42 -8 -60
-8 -65 1 -5 6 0 12 11 14 20 3 41 41 41 73 0 26 -30 36 -145 51 -83 10 -99 9
-139 -6 -69 -26 -124 -71 -134 -108 -8 -33 -56 -77 -69 -64 -13 13 -4 133 13
176 l17 41 36 -35 c45 -44 57 -45 66 -4 4 17 20 60 36 96 l29 65 38 -40 c20
-22 52 -48 71 -58 32 -16 36 -16 46 -1 8 10 27 16 50 16 43 0 43 1 6 100 -25
69 -26 123 -2 176 17 37 62 84 82 84 4 0 17 -12 29 -27z"/>
<path d="M3194 5795 c-9 -14 -21 -25 -26 -25 -21 0 -115 -53 -145 -82 -17 -17
-37 -44 -44 -60 -6 -16 -39 -57 -73 -91 -139 -140 -223 -394 -233 -702 -2 -82
-9 -162 -14 -176 -7 -18 -7 -40 1 -70 24 -92 125 -265 212 -367 25 -29 28 -30
28 -11 0 20 2 19 28 -8 32 -35 73 -58 120 -66 31 -6 46 6 20 16 -10 3 -8 8 4
18 16 13 16 17 -2 72 -11 32 -22 75 -26 95 l-7 37 29 -29 c16 -16 54 -41 84
-55 135 -64 450 -10 535 91 55 64 68 112 62 214 l-5 91 34 17 c19 9 57 16 84
16 49 0 49 0 55 -37 19 -118 95 -242 172 -278 74 -35 249 -5 396 69 48 24 87
38 87 32 0 -6 -8 -42 -19 -79 -10 -37 -15 -67 -11 -67 11 0 138 137 161 173
l20 32 -7 -39 c-4 -22 -22 -89 -40 -150 -27 -93 -38 -116 -65 -138 -18 -16
-42 -28 -52 -28 -10 0 -15 -4 -12 -10 3 -5 1 -53 -4 -107 -12 -113 -40 -179
-123 -288 -125 -166 -264 -270 -408 -306 -85 -21 -230 -17 -330 10 -169 45
-344 150 -413 247 -18 25 -58 104 -89 176 -55 124 -79 170 -64 121 8 -26 -17
-43 -63 -43 -43 0 -96 51 -151 144 -52 89 -66 94 -20 7 56 -105 125 -171 180
-171 27 0 25 -19 -5 -64 -31 -46 -31 -61 1 -93 20 -20 32 -24 56 -19 26 5 29
4 18 -9 -27 -32 30 -42 69 -12 10 9 18 4 34 -18 11 -17 45 -54 74 -84 29 -30
54 -63 54 -75 1 -17 2 -18 6 -3 2 9 6 17 8 17 1 0 28 -16 60 -35 221 -133 495
-163 677 -75 23 11 43 20 45 20 2 0 3 -12 3 -27 1 -23 15 -38 80 -87 44 -32
77 -62 74 -67 -11 -18 -176 -120 -271 -168 l-99 -50 -190 10 c-104 6 -199 13
-211 15 -25 5 -100 114 -147 213 -22 48 -32 85 -34 135 l-4 68 -107 -7 c-58
-3 -146 -11 -196 -17 -49 -6 -97 -11 -106 -12 -19 -1 -119 127 -119 154 0 30
-46 76 -99 99 -52 22 -234 61 -287 61 -16 0 -39 -6 -49 -14 -13 -9 -27 -11
-42 -5 -13 5 -29 6 -36 3 -7 -2 -29 2 -48 10 -47 19 -131 29 -149 16 -11 -7 1
-10 45 -10 33 -1 78 -7 100 -15 22 -8 52 -15 67 -15 15 0 30 -4 33 -10 4 -6
18 -1 35 11 l28 21 127 -21 c172 -28 248 -66 258 -128 1 -11 21 -45 44 -74 41
-55 67 -99 61 -103 -2 -2 -36 -11 -76 -21 -130 -31 -204 -115 -247 -281 -17
-66 -20 -202 -5 -255 8 -27 6 -53 -5 -102 -8 -35 -20 -100 -25 -143 -6 -44
-20 -125 -31 -182 -10 -57 -19 -106 -20 -110 0 -4 -4 3 -9 15 -5 13 -16 23
-25 23 -9 0 -28 7 -43 16 -26 15 -26 15 3 -10 30 -26 28 -30 -10 -27 -14 1 -9
-5 15 -18 30 -18 33 -26 7 -22 -4 1 0 -10 9 -24 15 -23 15 -27 1 -49 -15 -22
-14 -23 1 -22 14 1 17 -7 15 -45 -3 -48 -61 -317 -142 -649 -28 -113 -113
-466 -191 -785 -77 -319 -142 -590 -146 -602 -8 -29 -73 -51 -194 -64 -52 -6
-178 -25 -280 -41 -202 -33 -304 -34 -478 -3 -101 17 -141 41 -183 106 -18 27
-35 49 -37 49 -7 0 6 -219 14 -247 l6 -23 409 0 409 0 0 33 c0 17 5 39 10 47
7 11 10 7 10 -17 0 -69 -107 -63 1141 -63 l1128 0 27 45 c42 72 138 311 203
504 54 163 75 229 176 552 l36 116 51 17 c29 9 104 26 167 37 193 35 377 12
469 -58 25 -19 37 -22 45 -14 13 13 -6 30 -75 66 -139 73 -389 70 -594 -6 -75
-28 -81 -16 -8 17 107 47 238 76 354 76 124 1 207 -18 296 -67 l62 -33 12 26
c33 71 71 200 93 317 47 246 52 298 52 595 0 315 -5 353 -69 475 -61 116 -252
283 -583 508 -25 18 -40 34 -36 43 3 7 -11 33 -31 57 -20 25 -52 80 -70 122
-19 43 -40 82 -48 86 -20 11 -162 29 -233 29 -68 0 -91 14 -59 36 122 86 273
259 330 379 22 46 36 93 40 135 5 44 13 71 25 83 11 10 19 24 19 32 0 8 13 29
30 48 30 35 68 146 90 268 6 35 23 88 36 117 37 78 50 155 36 208 -9 34 -9 54
0 89 9 33 9 53 1 74 -7 19 -7 34 0 46 7 14 5 22 -13 35 -21 16 -23 25 -21 87
2 49 -4 88 -18 131 -12 34 -21 76 -21 95 0 83 -47 183 -116 249 -22 20 -50 52
-63 70 -14 18 -46 52 -73 76 l-49 42 -604 0 -605 0 -16 -25z m479 -705 c9 -42
113 -143 171 -165 44 -17 47 -17 66 0 14 12 28 16 50 12 l30 -6 -7 60 -6 60
35 -20 c19 -12 57 -24 84 -27 l49 -7 -21 24 c-22 25 -48 69 -40 69 2 0 27 -16
56 -35 57 -38 163 -75 218 -75 29 0 41 -7 69 -40 19 -22 41 -40 49 -40 8 0 14
-7 14 -15 0 -13 -4 -14 -21 -4 -12 6 -19 7 -16 2 3 -4 -40 -9 -95 -11 -129 -3
-270 -32 -350 -71 -35 -17 -55 -25 -45 -18 9 8 17 19 17 24 0 6 10 13 22 16
12 4 19 9 16 12 -8 8 -380 -64 -392 -76 -6 -6 -3 -9 10 -9 10 0 25 -4 32 -9 8
-5 -26 -6 -80 -4 -109 6 -218 -12 -346 -57 -48 -17 -97 -34 -110 -37 l-23 -5
20 33 c10 19 25 54 31 79 7 25 14 51 16 59 4 11 9 10 25 -5 25 -23 42 -14 84
44 17 22 33 41 38 41 4 1 16 -8 28 -20 20 -20 21 -20 47 -3 15 10 33 25 40 33
11 14 13 14 26 -2 12 -16 16 -14 56 24 39 38 90 127 90 158 0 8 6 11 16 7 11
-4 18 1 21 14 8 29 20 25 26 -10z m274 -305 c-18 -29 -28 -34 -59 -35 -20 0
-60 -5 -89 -11 -40 -9 -61 -8 -90 1 -22 7 -36 16 -33 19 4 4 244 55 286 60 4
1 -3 -15 -15 -34z m-910 -325 c-5 -31 -17 -36 -17 -7 0 15 4 27 10 27 5 0 9
-9 7 -20z m1383 1 c-18 -11 -133 -41 -151 -40 -16 0 129 46 151 47 13 1 13 0
0 -7z m-185 -45 c11 -2 -10 -4 -47 -5 -38 0 -68 2 -68 7 0 7 67 6 115 -2z
m-1198 -28 c-3 -8 -6 -5 -6 6 -1 11 2 17 5 13 3 -3 4 -12 1 -19z m1543 -1109
c0 -46 -147 -184 -247 -234 -108 -53 -118 -56 -139 -40 -18 13 -17 14 11 25
141 57 202 95 280 176 80 82 95 93 95 73z m30 -43 c0 -26 -98 -142 -159 -186
-91 -67 -182 -111 -199 -98 -16 14 -10 19 58 48 98 41 206 126 262 207 31 46
38 51 38 29z m-2125 -786 c3 -5 1 -10 -4 -10 -6 0 -11 5 -11 10 0 6 2 10 4 10
3 0 8 -4 11 -10z m1469 -142 c-4 -7 -16 -23 -27 -36 -12 -12 -21 -31 -22 -41
-2 -24 51 -96 60 -82 9 15 28 14 19 -1 -8 -15 34 19 53 42 9 10 11 30 8 57 -5
35 -4 42 9 37 23 -9 35 -55 22 -84 -23 -53 -43 -71 -77 -72 -72 -2 -106 18
-115 66 -10 57 -8 68 17 100 21 26 67 38 53 14z"/>
<path d="M4030 4913 c-42 -7 -78 -24 -85 -40 -3 -9 -4 -18 -1 -20 2 -3 51 4
108 16 56 11 123 23 148 27 l45 8 -55 7 c-60 8 -121 9 -160 2z"/>
<path d="M3490 4815 c-164 -26 -321 -91 -350 -145 l-11 -21 40 20 c49 26 179
64 291 85 47 10 109 22 138 27 58 12 64 20 27 37 -30 14 -25 14 -135 -3z"/>
<path d="M1471 5012 c-19 -10 -41 -28 -49 -40 -14 -22 -14 -22 29 2 61 33 106
39 165 21 58 -18 64 -18 64 -5 0 6 -8 10 -17 10 -15 0 -15 2 -4 9 11 7 8 9
-10 10 -13 1 -51 4 -84 7 -47 4 -67 1 -94 -14z"/>
<path d="M2076 5011 c-4 -5 3 -7 14 -4 23 6 26 13 6 13 -8 0 -17 -4 -20 -9z"/>
<path d="M2090 4993 c-29 -7 -63 -24 -75 -37 -21 -23 -21 -23 -2 -36 16 -10
19 -10 15 2 -4 10 3 14 28 14 25 0 34 -4 34 -16 0 -43 57 -54 81 -15 13 23 17
24 34 11 17 -12 18 -16 5 -32 -8 -10 -10 -15 -3 -11 6 4 14 1 16 -5 4 -8 6 -7
6 4 1 11 11 18 33 20 24 2 34 8 35 23 l3 20 -9 -20 c-5 -11 -10 -15 -10 -9 -1
14 -77 51 -121 59 -22 4 -52 1 -78 -8 -23 -8 -42 -11 -42 -6 0 11 66 29 106
29 17 0 53 -11 80 -25 58 -29 54 -28 54 -12 0 15 -58 46 -106 57 -17 4 -53 1
-84 -7z"/>
<path d="M1468 4970 c-46 -25 -54 -37 -27 -45 13 -4 27 -1 39 10 17 16 19 15
29 -3 22 -42 81 -25 81 22 0 10 5 16 13 13 60 -22 77 -18 27 8 -40 21 -117 18
-162 -5z"/>
<path d="M1685 4960 c3 -5 10 -10 16 -10 5 0 9 5 9 10 0 6 -7 10 -16 10 -8 0
-12 -4 -9 -10z"/>
<path d="M1390 4946 c0 -8 4 -17 9 -20 5 -4 7 3 4 14 -6 23 -13 26 -13 6z"/>
<path d="M1660 4925 c-7 -8 -17 -12 -24 -9 -6 3 -2 -2 9 -11 17 -13 18 -17 5
-25 -8 -5 -12 -11 -9 -14 8 -8 79 45 78 58 0 6 -3 5 -6 -2 -4 -10 -9 -10 -23
3 -15 14 -18 14 -30 0z m30 -16 c0 -5 -4 -9 -10 -9 -5 0 -10 7 -10 16 0 8 5
12 10 9 6 -3 10 -10 10 -16z"/>
<path d="M1476 4905 c-11 -8 -17 -15 -14 -15 4 0 13 -2 20 -5 9 -4 14 2 15 15
2 24 3 23 -21 5z"/>
<path d="M1600 4913 c0 -17 19 -37 27 -29 4 5 2 11 -5 13 -6 3 -10 9 -6 14 3
5 0 9 -5 9 -6 0 -11 -3 -11 -7z"/>
<path d="M1980 4913 c0 -4 5 -15 10 -23 8 -13 10 -13 10 2 0 9 -4 20 -10 23
-5 3 -10 3 -10 -2z"/>
<path d="M1570 4901 c0 -5 -6 -11 -13 -13 -11 -2 -9 -8 5 -23 17 -18 19 -18
12 -1 -4 11 -2 21 6 26 8 5 9 9 1 14 -6 4 -11 3 -11 -3z"/>
<path d="M2071 4883 c12 -15 12 -16 -3 -10 -12 4 -15 2 -12 -8 5 -11 10 -12
24 -2 14 8 16 15 8 24 -6 7 -15 13 -20 13 -6 0 -4 -8 3 -17z"/>
<path d="M2010 4883 c0 -5 5 -15 10 -23 8 -12 10 -11 10 8 0 12 -4 22 -10 22
-5 0 -10 -3 -10 -7z"/>
<path d="M1527 4869 c7 -7 15 -10 18 -7 3 3 -2 9 -12 12 -14 6 -15 5 -6 -5z"/>
<path d="M2175 4870 c3 -5 8 -10 11 -10 2 0 4 5 4 10 0 6 -5 10 -11 10 -5 0
-7 -4 -4 -10z"/>
<path d="M1608 4863 c7 -3 16 -2 19 1 4 3 -2 6 -13 5 -11 0 -14 -3 -6 -6z"/>
<path d="M2110 4858 c0 -10 9 -9 35 2 17 8 16 8 -7 7 -16 -1 -28 -5 -28 -9z"/>
<path d="M1518 4703 c18 -2 45 -2 60 0 15 2 0 4 -33 4 -33 0 -45 -2 -27 -4z"/>
<path d="M1685 4659 c-4 -6 -5 -12 -2 -15 2 -3 7 2 10 11 7 17 1 20 -8 4z"/>
<path d="M1980 4618 c0 -13 -7 -32 -15 -42 -14 -18 -15 -18 -24 7 -15 38 -27
40 -54 7 -38 -45 -84 -36 -102 20 -8 26 -45 26 -52 0 -7 -26 -28 -25 -47 2 -9
12 -16 18 -16 13 1 -26 32 -48 72 -52 24 -2 47 -9 53 -14 12 -12 72 -12 79 0
4 5 22 5 43 0 33 -7 41 -6 56 12 15 19 24 69 12 69 -3 0 -5 -10 -5 -22z"/>
<path d="M3994 4442 c4 -7 27 -24 52 -38 49 -29 64 -50 64 -88 0 -30 -29 -36
-50 -11 -24 28 -53 14 -71 -35 -27 -72 -85 -95 -140 -55 -19 13 -45 32 -58 41
-29 22 -54 9 -61 -33 -4 -27 -8 -29 -28 -22 -12 5 -25 16 -29 25 -9 23 13 86
42 120 14 16 25 38 25 49 0 12 -15 -4 -40 -45 -42 -68 -53 -127 -27 -148 24
-21 66 -25 73 -8 7 17 78 23 88 7 3 -5 21 -12 40 -15 43 -8 102 14 111 43 6
20 57 41 102 41 29 0 44 30 37 70 -5 23 -19 39 -58 64 -79 50 -80 50 -72 38z"/>
<path d="M1695 4405 c-25 -12 -26 -14 -5 -9 28 7 60 23 45 23 -5 0 -23 -6 -40
-14z"/>
<path d="M1783 4408 c16 -10 95 -10 100 0 3 4 -21 7 -53 7 -32 0 -53 -3 -47
-7z"/>
<path d="M1900 4414 c0 -7 25 -28 53 -45 29 -16 19 -3 -18 25 -19 15 -35 24
-35 20z"/>
<path d="M1640 4345 c-35 -7 -48 -13 -35 -16 11 -3 38 -1 59 5 27 6 57 6 96
-2 31 -7 82 -12 112 -12 31 0 67 -4 81 -9 13 -5 30 -6 37 -1 15 9 -69 27 -107
22 -12 -1 -52 4 -88 13 -74 17 -79 17 -155 0z"/>
<path d="M1878 4353 c7 -3 16 -2 19 1 4 3 -2 6 -13 5 -11 0 -14 -3 -6 -6z"/>
<path d="M3955 4050 c-11 -5 -35 -9 -54 -9 -34 -1 -101 -35 -101 -52 0 -5 19
2 41 17 25 15 49 24 62 20 11 -3 36 2 56 10 24 10 53 13 86 10 35 -4 43 -3 25
3 -32 12 -90 12 -115 1z"/>
<path d="M4030 3989 c-30 -5 -65 -14 -77 -20 -12 -7 -28 -9 -36 -6 -25 9 -237
-57 -224 -70 3 -2 44 8 93 22 54 16 102 24 122 21 22 -3 46 2 70 14 20 10 67
24 105 30 37 7 67 14 67 16 0 6 -59 3 -120 -7z"/>
<path d="M1453 3900 c0 -30 2 -43 4 -27 2 15 2 39 0 55 -2 15 -4 2 -4 -28z"/>
<path d="M3940 3846 c-45 -12 -114 -45 -95 -45 6 0 35 8 65 19 33 12 85 20
130 21 53 1 68 3 50 9 -37 12 -99 10 -150 -4z"/>
<path d="M1410 3809 c-19 -17 -78 -53 -130 -79 -106 -55 -113 -64 -18 -23 80
34 125 63 162 102 37 39 31 39 -14 0z"/>
<path d="M2041 3774 c0 -11 3 -14 6 -6 3 7 2 16 -1 19 -3 4 -6 -2 -5 -13z"/>
<path d="M1408 3685 c42 -63 119 -116 187 -130 20 -4 14 1 -17 13 -70 29 -113
59 -154 105 -21 24 -28 29 -16 12z"/>
<path d="M1068 3633 c-27 -14 -46 -28 -45 -30 2 -2 28 10 58 27 30 16 50 30
44 30 -5 0 -31 -12 -57 -27z"/>
<path d="M862 3514 c-13 -9 -55 -32 -95 -52 -47 -23 -94 -58 -138 -102 -57
-58 -69 -75 -87 -136 -11 -38 -25 -96 -31 -130 -15 -84 -17 -680 -2 -904 6
-102 12 -224 13 -272 1 -96 5 -104 58 -113 25 -4 31 -3 20 5 -8 5 -25 10 -37
10 -22 0 -40 31 -29 49 4 5 2 85 -4 178 -28 486 -30 543 -20 790 15 385 43
466 200 573 30 20 73 47 95 58 39 21 95 61 85 62 -3 0 -16 -7 -28 -16z"/>
<path d="M1880 3015 c-11 -13 -10 -14 4 -9 9 3 16 10 16 15 0 13 -6 11 -20 -6z"/>
<path d="M1838 3002 c-10 -2 -18 -8 -18 -13 0 -13 27 -11 35 2 9 13 4 16 -17
11z"/>
<path d="M1917 2994 c4 -10 -1 -17 -16 -21 -11 -3 -21 -9 -21 -14 0 -5 6 -6
13 -3 22 8 43 -24 29 -46 -9 -14 -8 -19 2 -23 8 -3 16 -4 18 -1 8 7 -4 64 -13
64 -5 0 -9 5 -9 10 0 6 7 10 15 10 13 0 13 3 3 20 -15 24 -30 27 -21 4z"/>
<path d="M1727 2966 c18 -16 29 -20 32 -13 2 7 11 18 20 25 13 10 11 10 -13 2
-20 -8 -32 -8 -40 0 -5 5 -14 10 -19 10 -4 0 5 -11 20 -24z"/>
<path d="M1658 2958 c6 -6 18 -8 28 -6 14 3 12 5 -9 10 -19 3 -25 2 -19 -4z"/>
<path d="M1596 2949 c-16 -4 -33 -6 -37 -4 -10 7 -39 -5 -39 -15 0 -12 71 -6
95 7 27 16 17 22 -19 12z"/>
<path d="M1720 2931 c8 -15 6 -28 -8 -53 -24 -42 -42 -42 -59 0 -12 30 -12 32
6 32 11 0 23 -4 26 -10 9 -15 25 -12 25 4 0 16 -73 31 -78 16 -2 -6 -10 -10
-17 -10 -8 0 -17 -5 -21 -11 -4 -8 0 -9 15 -4 16 5 21 2 21 -10 0 -18 38 -54
57 -55 16 0 44 30 38 41 -4 5 -1 9 4 9 12 0 14 29 5 54 -3 9 -10 16 -15 16 -6
0 -5 -8 1 -19z"/>
<path d="M2098 2925 c2 -14 11 -25 19 -25 8 0 11 5 7 13 -6 10 -4 10 7 0 18
-18 50 -17 43 1 -3 8 -12 12 -19 10 -7 -3 -16 0 -20 5 -3 6 -11 9 -16 6 -5 -4
-9 -1 -9 4 0 6 -4 11 -9 11 -4 0 -6 -11 -3 -25z"/>
<path d="M1793 2925 c-8 -22 6 -33 17 -15 13 20 12 30 0 30 -6 0 -13 -7 -17
-15z"/>
<path d="M1875 2910 c-3 -5 -1 -10 4 -10 6 0 11 5 11 10 0 6 -2 10 -4 10 -3 0
-8 -4 -11 -10z"/>
<path d="M2066 2893 c-6 -14 -5 -15 5 -6 7 7 10 15 7 18 -3 3 -9 -2 -12 -12z"/>
<path d="M1530 2891 c0 -6 -9 -11 -19 -11 -27 0 -34 -15 -8 -17 11 -1 25 -9
29 -18 5 -8 14 -13 19 -9 6 4 6 11 -1 19 -7 8 -9 19 -6 24 4 5 2 12 -4 16 -5
3 -10 1 -10 -4z"/>
<path d="M1395 2880 c-7 -12 2 -12 30 0 19 8 19 9 -2 9 -12 1 -25 -3 -28 -9z"/>
<path d="M1850 2876 c0 -2 8 -10 18 -17 15 -13 16 -12 3 4 -13 16 -21 21 -21
13z"/>
<path d="M1885 2870 c3 -5 11 -10 16 -10 6 0 7 5 4 10 -3 6 -11 10 -16 10 -6
0 -7 -4 -4 -10z"/>
<path d="M1988 2863 c16 -11 15 -12 -3 -13 -18 0 -18 -2 5 -20 29 -23 47 -25
47 -7 0 6 3 21 6 32 6 18 2 20 -32 20 -34 1 -37 -1 -23 -12z"/>
<path d="M1748 2845 c-17 -22 -17 -23 7 -21 27 1 27 2 17 28 -6 14 -9 13 -24
-7z"/>
<path d="M1360 2850 c0 -5 5 -10 11 -10 5 0 7 5 4 10 -3 6 -8 10 -11 10 -2 0
-4 -4 -4 -10z"/>
<path d="M1607 2849 c7 -7 15 -10 18 -7 3 3 -2 9 -12 12 -14 6 -15 5 -6 -5z"/>
<path d="M2275 2838 c3 -31 3 -31 18 -16 11 10 12 15 1 25 -18 18 -22 16 -19
-9z"/>
<path d="M1495 2830 c17 -11 35 -20 40 -20 17 1 -36 40 -54 40 -10 0 -6 -7 14
-20z"/>
<path d="M1561 2831 c-6 -11 -8 -27 -4 -37 4 -11 3 -15 -4 -11 -8 5 -10 -7 -7
-35 3 -32 2 -38 -5 -23 -9 19 -10 18 -10 -5 -1 -31 55 -91 78 -83 12 5 13 3 4
-7 -8 -9 -9 -20 -2 -38 8 -21 5 -30 -18 -54 -15 -16 -33 -26 -40 -23 -8 2 -16
-2 -19 -10 -4 -8 -16 -15 -28 -16 -21 0 -21 0 2 -11 23 -11 30 -28 11 -28 -5
0 -8 -4 -4 -9 12 -20 13 -96 2 -103 -19 -12 -40 -9 -34 5 4 10 -3 12 -23 9
-15 -2 -37 1 -48 7 -10 6 -22 8 -26 4 -10 -10 43 -33 61 -26 10 4 14 2 9 -5
-9 -15 23 -23 88 -21 38 1 56 6 56 15 0 7 8 14 18 16 10 3 4 6 -15 9 -18 3
-30 3 -28 -1 2 -3 0 -12 -4 -19 -6 -9 -12 -4 -19 18 -7 19 -7 31 -1 31 5 0 9
5 9 11 0 6 -6 9 -14 6 -11 -5 -12 0 -2 24 l11 30 8 -30 c4 -17 12 -31 17 -31
13 0 13 17 0 25 -5 3 -10 23 -10 45 0 28 7 46 29 69 25 27 36 31 78 31 37 0
50 4 50 15 0 8 -6 16 -14 19 -7 3 -13 0 -13 -7 0 -20 -20 16 -20 37 0 16 2 17
18 5 15 -13 16 -12 3 3 -12 17 -15 17 -41 2 -32 -19 -30 -51 4 -57 17 -3 15
-5 -6 -6 -30 -1 -33 7 -28 73 1 22 -2 27 -13 23 -10 -4 -17 3 -21 24 -3 16
-10 29 -16 29 -6 0 -8 -11 -4 -27 6 -24 5 -26 -7 -16 -16 13 -14 103 2 103 6
0 5 9 -1 20 -9 16 -8 20 5 20 17 0 20 16 6 25 -6 3 -15 -3 -20 -14z m-1 -341
c0 -5 -4 -10 -10 -10 -5 0 -10 5 -10 10 0 6 5 10 10 10 6 0 10 -4 10 -10z"/>
<path d="M1380 2825 c-11 -13 -10 -14 4 -9 9 3 16 10 16 15 0 13 -6 11 -20 -6z"/>
<path d="M1325 2819 c-3 -4 2 -6 10 -5 21 3 28 13 10 13 -9 0 -18 -4 -20 -8z"/>
<path d="M1435 2820 c-3 -4 10 -13 28 -20 17 -8 41 -20 51 -29 18 -15 18 -15
8 5 -6 11 -17 25 -24 31 -18 14 -57 23 -63 13z"/>
<path d="M2116 2814 c-3 -9 -6 -24 -6 -34 0 -10 -4 -20 -9 -22 -4 -1 -5 -12
-1 -23 7 -18 8 -17 15 8 5 18 12 26 21 23 8 -3 18 4 24 14 11 21 -3 29 -15 10
-3 -5 -10 -10 -16 -10 -13 0 -11 28 3 32 8 3 9 6 1 11 -6 4 -14 0 -17 -9z"/>
<path d="M1591 2811 c-10 -6 -10 -10 -1 -16 9 -6 9 -9 -1 -15 -20 -13 -20 -40
-1 -33 10 3 22 10 28 14 6 5 14 6 17 2 4 -3 9 2 13 11 3 9 10 16 16 16 5 0 6
-6 2 -12 -6 -10 -4 -10 7 0 10 10 11 14 0 25 -10 10 -15 8 -26 -7 -15 -20 -40
-12 -31 10 6 16 -3 18 -23 5z"/>
<path d="M1695 2810 c3 -5 8 -10 11 -10 2 0 4 5 4 10 0 6 -5 10 -11 10 -5 0
-7 -4 -4 -10z"/>
<path d="M2270 2775 c0 -8 2 -15 4 -15 2 0 6 7 10 15 3 8 1 15 -4 15 -6 0 -10
-7 -10 -15z"/>
<path d="M1892 2768 c2 -6 15 -15 28 -20 23 -9 23 -8 5 12 -20 22 -39 27 -33
8z"/>
<path d="M1957 2765 c3 -8 9 -12 14 -9 12 7 11 11 -5 17 -10 4 -13 1 -9 -8z"/>
<path d="M2013 2769 c-24 -9 -30 -25 -12 -31 5 -2 7 -11 4 -20 -7 -17 -45 -14
-45 4 0 5 -4 7 -9 4 -4 -3 -22 -1 -39 3 -28 9 -30 8 -20 -8 7 -12 20 -16 37
-14 24 4 24 3 9 -10 -10 -8 -15 -17 -11 -20 10 -10 -6 -8 -28 4 -11 5 -17 14
-14 20 4 5 1 9 -4 9 -30 0 7 -42 48 -55 15 -4 21 -3 17 3 -7 12 20 36 32 28 5
-3 31 2 58 11 40 13 45 18 29 24 -30 11 -33 11 -38 -8 -3 -12 -5 -8 -6 9 0 14
-7 29 -13 32 -7 3 -1 3 15 0 16 -4 27 -2 27 4 0 17 -13 20 -37 11z"/>
<path d="M2360 2766 c0 -4 7 -14 15 -22 8 -9 15 -11 15 -6 0 5 -7 15 -15 22
-8 7 -15 9 -15 6z"/>
<path d="M1766 2751 c-4 -5 3 -7 14 -4 23 6 26 13 6 13 -8 0 -17 -4 -20 -9z"/>
<path d="M2162 2730 c-15 -24 -16 -50 -1 -50 6 0 9 6 6 13 -2 6 0 20 5 30 13
26 5 31 -10 7z"/>
<path d="M1625 2730 c3 -5 8 -10 11 -10 2 0 4 5 4 10 0 6 -5 10 -11 10 -5 0
-7 -4 -4 -10z"/>
<path d="M1266 2715 c-9 -26 -7 -32 5 -12 6 10 9 21 6 23 -2 3 -7 -2 -11 -11z"/>
<path d="M1770 2698 c0 -7 12 -18 26 -25 15 -7 24 -10 20 -6 -3 3 -1 12 5 19
7 8 6 14 -2 20 -8 4 -9 3 -5 -4 4 -7 1 -12 -8 -12 -9 0 -16 5 -16 10 0 6 -4
10 -10 10 -5 0 -10 -6 -10 -12z"/>
<path d="M865 2685 c36 -110 45 -175 45 -325 0 -163 12 -260 36 -297 8 -12 14
-37 15 -55 0 -32 1 -32 10 -8 8 19 6 33 -10 61 -25 44 -41 174 -41 344 0 123
-17 224 -46 273 -8 15 -12 18 -9 7z"/>
<path d="M1388 2681 c-38 -16 -48 -34 -27 -47 9 -5 76 54 67 61 -2 1 -20 -5
-40 -14z"/>
<path d="M1650 2660 c0 -5 5 -10 11 -10 5 0 7 5 4 10 -3 6 -8 10 -11 10 -2 0
-4 -4 -4 -10z"/>
<path d="M2335 2652 l-30 -15 28 -10 c31 -10 37 -37 8 -37 -28 0 -35 -18 -9
-22 14 -2 31 -18 44 -42 20 -35 22 -37 21 -12 -1 14 -5 26 -8 26 -3 0 -4 14
-1 30 3 20 -2 37 -13 50 -17 18 -12 46 6 35 5 -4 9 -1 9 4 0 15 -19 12 -55 -7z"/>
<path d="M1283 2646 c-28 -10 -30 -13 -17 -31 8 -10 14 -40 14 -66 0 -39 -5
-51 -25 -67 -32 -25 -32 -34 1 -22 15 6 32 6 42 1 15 -8 17 -3 20 36 3 52 23
87 61 109 21 12 22 14 5 9 -13 -3 -28 1 -37 9 -13 14 -16 14 -21 0 -4 -10 -2
-13 6 -8 6 4 8 3 5 -4 -8 -12 -44 -5 -54 11 -4 7 0 8 13 3 10 -4 15 -4 11 0
-4 4 -2 13 4 21 6 7 10 12 8 12 -2 -1 -18 -7 -36 -13z"/>
<path d="M1875 2641 c5 -26 -33 -99 -58 -112 -19 -11 -19 -12 -3 -21 14 -8 15
-12 4 -26 -11 -14 -10 -15 5 -9 10 4 25 7 33 7 8 0 14 7 14 15 0 8 -9 15 -20
15 -11 0 -20 5 -20 12 0 6 3 8 7 5 4 -4 12 6 19 22 10 23 17 28 33 24 20 -5
20 -4 7 28 -7 19 -11 40 -9 47 3 6 0 12 -6 12 -5 0 -8 -9 -6 -19z"/>
<path d="M2149 2647 c7 -7 14 -8 21 -1 6 6 2 10 -12 11 -16 2 -18 -1 -9 -10z"/>
<path d="M1410 2631 c0 -5 11 -16 24 -24 16 -11 23 -25 22 -41 -1 -23 -2 -24
-23 -11 -26 17 -33 18 -33 7 0 -15 51 -33 73 -26 20 6 20 7 2 20 -10 8 -14 14
-7 14 6 0 9 6 6 13 -6 18 -64 61 -64 48z"/>
<path d="M2267 2616 c-18 -14 -18 -14 1 -20 11 -4 26 -4 35 0 14 5 14 8 2 20
-16 17 -15 17 -38 0z"/>
<path d="M2130 2618 c0 -3 18 -25 39 -47 29 -30 40 -37 45 -26 3 9 0 15 -9 15
-18 0 -18 5 -4 33 9 18 9 20 -2 10 -18 -18 -39 -16 -55 5 -7 9 -14 14 -14 10z"/>
<path d="M1246 2583 c4 -22 3 -33 -5 -33 -6 0 -11 -12 -11 -27 1 -27 1 -27 15
-9 17 23 19 64 5 86 -7 11 -8 6 -4 -17z"/>
<path d="M2011 2569 c-14 -5 -38 -8 -55 -7 -28 3 -30 0 -33 -29 -2 -18 2 -33
7 -33 6 0 9 5 8 11 -2 6 3 14 10 16 7 3 12 -4 12 -16 0 -12 5 -21 10 -21 6 0
8 11 4 26 -6 25 -6 26 17 14 17 -10 24 -10 27 -1 5 14 49 15 57 1 3 -5 13 -10
21 -10 8 0 26 -11 40 -25 l24 -24 -30 -16 c-16 -9 -30 -20 -30 -25 0 -23 54
-1 69 29 8 14 6 24 -10 42 -11 13 -26 24 -34 25 -30 4 -75 29 -75 41 0 15 -6
15 -39 2z"/>
<path d="M2080 2576 c0 -2 11 -6 25 -8 13 -3 22 -1 19 3 -5 9 -44 13 -44 5z"/>
<path d="M2250 2560 c-8 -5 -16 -17 -16 -27 -1 -10 -4 -39 -8 -65 -3 -28 -1
-50 5 -54 6 -3 10 0 8 7 -7 54 3 92 30 120 22 22 25 29 13 29 -9 0 -24 -5 -32
-10z"/>
<path d="M1376 2531 c-5 -8 -2 -20 8 -29 17 -17 19 -9 7 22 -6 15 -10 16 -15
7z"/>
<path d="M1405 2520 c3 -5 14 -10 23 -10 15 0 15 2 2 10 -20 13 -33 13 -25 0z"/>
<path d="M2440 2520 c8 -5 20 -10 25 -10 6 0 3 5 -5 10 -8 5 -19 10 -25 10 -5
0 -3 -5 5 -10z"/>
<path d="M2027 2513 c-4 -3 -7 -16 -6 -27 0 -19 1 -19 10 3 10 24 8 36 -4 24z"/>
<path d="M2204 2495 c-1 -14 2 -25 7 -25 5 0 9 11 9 25 0 33 -15 33 -16 0z"/>
<path d="M1735 2470 c5 -21 4 -22 -5 -7 -14 21 -32 22 -76 1 -31 -15 -47 -44
-24 -44 6 0 10 4 10 8 0 11 60 45 67 39 3 -3 -4 -18 -16 -33 -11 -15 -21 -34
-21 -43 0 -10 7 -6 18 12 9 15 27 30 39 33 19 5 39 42 28 53 -3 2 -5 -2 -5
-10 0 -12 -2 -11 -11 1 -8 12 -9 9 -4 -10z"/>
<path d="M1915 2471 c-3 -12 -11 -18 -17 -15 -7 4 -8 2 -4 -4 4 -7 12 -12 18
-12 7 0 23 -10 36 -22 17 -16 26 -19 29 -10 3 6 11 12 19 12 21 0 16 13 -16
37 -43 34 -57 37 -65 14z m55 -22 c15 -27 6 -36 -15 -15 -9 9 -21 16 -26 16
-6 0 -7 5 -4 10 10 17 34 11 45 -11z"/>
<path d="M1780 2450 c0 -5 7 -10 15 -10 9 0 15 -7 13 -17 -2 -10 4 -18 15 -19
15 -2 15 -1 1 3 -14 4 -14 7 -3 14 11 7 10 11 -6 23 -23 18 -35 20 -35 6z"/>
<path d="M2171 2426 c-7 -8 -28 -17 -47 -21 -24 -4 -38 -13 -41 -26 -4 -13
-11 -18 -20 -15 -8 3 -17 6 -19 6 -3 0 0 8 5 19 15 28 -7 41 -37 23 -10 -7 -9
-16 3 -45 16 -40 24 -44 43 -25 7 7 12 8 12 3 0 -6 4 -4 9 3 4 7 14 14 22 15
8 2 20 6 27 10 7 5 12 3 13 -5 0 -7 5 -1 10 13 5 15 19 31 31 36 13 6 18 12
11 16 -6 4 -16 1 -22 -7z m-136 -35 c-4 -13 0 -23 12 -30 16 -9 16 -10 1 -11
-18 0 -33 33 -23 50 10 17 17 11 10 -9z"/>
<path d="M1640 2415 c-7 -8 -20 -15 -29 -16 -11 0 -9 -3 7 -9 12 -5 22 -15 22
-22 1 -16 14 7 24 40 8 25 -5 29 -24 7z"/>
<path d="M1887 2413 c-4 -3 -7 -9 -7 -13 0 -8 52 -34 63 -32 4 1 6 -1 5 -5 -1
-5 6 -22 15 -40 l17 -32 -45 6 c-44 5 -45 5 -44 -23 l0 -29 11 25 c6 15 12 20
15 12 3 -6 9 -10 14 -7 5 3 17 1 28 -5 47 -24 67 28 36 95 l-14 30 6 -35 c2
-19 6 -41 9 -47 9 -30 -9 -9 -26 31 -20 44 -50 79 -50 57 0 -6 -5 -11 -11 -11
-6 0 -9 7 -5 15 5 15 -5 20 -17 8z"/>
<path d="M1410 2395 c0 -8 2 -15 4 -15 2 0 12 -3 21 -7 15 -5 16 -3 6 15 -13
25 -31 29 -31 7z"/>
<path d="M1276 2381 c-4 -5 3 -7 14 -4 23 6 26 13 6 13 -8 0 -17 -4 -20 -9z"/>
<path d="M2353 2355 c2 -20 37 -35 37 -16 0 6 -6 11 -14 11 -8 0 -17 6 -20 13
-3 6 -5 3 -3 -8z"/>
<path d="M2431 2354 c0 -11 3 -14 6 -6 3 7 2 16 -1 19 -3 4 -6 -2 -5 -13z"/>
<path d="M1260 2330 c-11 -7 -9 -11 12 -19 33 -12 45 -31 27 -42 -11 -7 -10
-9 4 -9 10 0 17 7 17 18 0 10 5 23 10 28 7 7 4 10 -12 10 -13 -1 -22 4 -20 12
2 14 -17 16 -38 2z"/>
<path d="M2335 2268 c2 -43 -1 -66 -11 -76 -8 -7 -14 -19 -13 -25 0 -9 2 -8 6
1 7 18 23 15 24 -5 0 -16 2 -15 10 2 8 17 9 16 4 -6 -3 -18 0 -29 10 -33 23
-9 29 19 10 48 -21 32 -12 70 16 63 14 -4 19 0 19 16 0 16 -3 18 -12 9 -19
-19 -38 -14 -47 11 -10 27 -6 34 12 19 8 -7 18 -7 27 -2 11 7 8 11 -14 20 -16
6 -32 13 -37 15 -4 3 -6 -23 -4 -57z"/>
<path d="M2068 2313 c7 -3 16 -2 19 1 4 3 -2 6 -13 5 -11 0 -14 -3 -6 -6z"/>
<path d="M2452 2294 c-8 -9 -10 -23 -6 -36 6 -19 7 -20 16 -4 5 9 8 25 6 35
-3 16 -5 17 -16 5z"/>
<path d="M1260 2285 c0 -8 5 -15 10 -15 6 0 10 7 10 15 0 8 -4 15 -10 15 -5 0
-10 -7 -10 -15z"/>
<path d="M2097 2254 c15 -29 32 -50 39 -47 8 3 6 11 -7 26 -10 12 -28 33 -39
47 -15 19 -13 12 7 -26z"/>
<path d="M2150 2289 c0 -5 5 -7 10 -4 6 3 10 8 10 11 0 2 -4 4 -10 4 -5 0 -10
-5 -10 -11z"/>
<path d="M1690 2270 c-6 -12 -9 -24 -7 -27 3 -2 11 5 17 17 6 12 9 24 7 27 -3
2 -11 -5 -17 -17z"/>
<path d="M1846 2265 c-11 -8 -16 -18 -11 -22 4 -5 10 -2 12 5 3 6 9 10 14 6 5
-3 9 2 9 10 0 19 0 19 -24 1z"/>
<path d="M2032 2264 c-7 -8 -17 -12 -23 -9 -5 4 -9 2 -9 -4 0 -16 48 -44 61
-35 8 4 9 3 5 -4 -4 -7 -1 -12 8 -12 26 0 27 19 2 35 -14 9 -26 22 -28 30 -2
10 -6 10 -16 -1z m23 -24 c8 -13 -5 -13 -25 0 -13 8 -13 10 2 10 9 0 20 -4 23
-10z"/>
<path d="M2274 2266 c-6 -6 -8 -20 -4 -31 6 -16 8 -15 13 10 6 35 6 37 -9 21z"/>
<path d="M2223 2253 c-3 -10 -7 -20 -9 -23 -1 -3 7 -7 19 -7 14 -2 17 1 9 6
-7 4 -10 15 -6 24 3 9 3 17 0 17 -4 0 -9 -8 -13 -17z"/>
<path d="M1814 2243 c4 -7 -3 -13 -16 -15 -22 -4 -21 -5 5 -12 36 -11 46 0 22
22 -10 9 -15 12 -11 5z"/>
<path d="M1375 2230 c-3 -5 -3 -14 0 -20 3 -5 3 -10 -2 -10 -14 0 -41 -57 -33
-70 4 -7 10 0 13 19 4 18 13 31 22 31 10 0 15 10 15 30 0 31 -4 37 -15 20z"/>
<path d="M1480 2230 c0 -5 5 -10 10 -10 6 0 10 5 10 10 0 6 -4 10 -10 10 -5 0
-10 -4 -10 -10z"/>
<path d="M1902 2198 c5 -24 13 -47 18 -52 5 -5 6 -14 4 -21 -3 -7 -1 -16 4
-19 15 -9 2 106 -14 121 -20 21 -22 16 -12 -29z"/>
<path d="M1666 2196 c-3 -10 2 -28 9 -40 9 -13 12 -31 8 -46 l-7 -25 -7 25
c-6 20 -7 17 -8 -17 -1 -23 4 -45 11 -49 7 -4 8 -3 4 4 -4 7 -3 12 3 12 19 0
24 79 7 105 -9 14 -12 25 -7 25 17 0 51 -52 52 -79 0 -14 3 -20 6 -13 2 6 9
12 15 12 6 0 8 -7 4 -15 -3 -8 -1 -15 4 -15 9 0 14 23 13 58 -1 6 4 12 9 12 5
0 22 9 36 21 l27 21 -25 -4 c-32 -4 -69 -39 -62 -57 9 -25 -17 -2 -33 29 -14
26 -13 30 3 39 19 12 19 12 -25 14 -24 2 -33 -3 -37 -17z"/>
<path d="M1862 2208 c-16 -16 -15 -28 3 -28 8 0 15 9 15 20 0 23 -2 24 -18 8z"/>
<path d="M1420 2154 c7 -45 20 -71 20 -41 0 10 5 17 10 17 6 0 10 -9 10 -20 0
-11 5 -20 11 -20 6 0 8 8 5 18 -3 9 -8 29 -11 43 -4 15 -17 31 -29 37 -22 10
-22 9 -16 -34z"/>
<path d="M1600 2189 c0 -5 9 -9 20 -9 11 0 20 2 20 4 0 2 -9 6 -20 9 -11 3
-20 1 -20 -4z"/>
<path d="M1532 2178 c5 -15 37 -18 41 -3 1 6 -9 12 -22 13 -16 3 -22 -1 -19
-10z"/>
<path d="M1585 2152 c-3 -3 -5 -10 -5 -15 0 -6 3 -8 6 -4 3 3 17 2 30 -3 13
-5 24 -6 24 -2 0 10 -48 31 -55 24z"/>
<path d="M2147 2153 c-9 -2 -15 -8 -12 -13 3 -5 -9 -5 -27 1 -40 11 -41 11
-33 -1 3 -5 -7 -23 -23 -41 -27 -30 -31 -31 -63 -21 -30 10 -32 10 -15 -2 21
-17 13 -38 -12 -30 -14 5 -14 3 2 -10 10 -8 24 -17 30 -20 8 -3 7 -7 -2 -13
-32 -23 92 -92 139 -77 22 6 80 62 105 98 l19 30 -25 -8 c-14 -4 -34 -8 -45
-10 -27 -4 -79 -31 -94 -50 -11 -13 -11 -17 3 -22 22 -8 10 -24 -18 -24 -31 0
-46 18 -46 57 0 84 38 120 132 122 21 1 25 5 21 21 -3 11 -8 19 -12 19 -3 -1
-14 -3 -24 -6z m14 -164 c-24 -22 -37 -20 -28 6 4 8 16 15 29 15 l22 0 -23
-21z m-141 7 c0 -3 -4 -8 -10 -11 -5 -3 -10 -1 -10 4 0 6 5 11 10 11 6 0 10
-2 10 -4z"/>
<path d="M2245 2130 c-3 -5 -1 -10 4 -10 6 0 11 5 11 10 0 6 -2 10 -4 10 -3 0
-8 -4 -11 -10z"/>
<path d="M1850 2121 c0 -5 5 -13 10 -16 6 -3 10 -2 10 4 0 5 -4 13 -10 16 -5
3 -10 2 -10 -4z"/>
<path d="M1370 2110 c-8 -5 -12 -12 -9 -15 4 -3 12 1 19 10 14 17 11 19 -10 5z"/>
<path d="M1549 2111 c18 -5 24 -14 26 -38 2 -25 -1 -30 -14 -25 -14 5 -14 4 1
-11 19 -19 38 -22 38 -6 0 6 8 3 17 -7 12 -12 18 -13 21 -5 2 7 -5 19 -16 26
-10 8 -22 28 -25 45 -6 26 -10 30 -39 29 -29 -1 -30 -2 -9 -8z"/>
<path d="M2291 2089 c-13 -11 -21 -22 -17 -26 3 -3 15 2 26 12 11 10 20 13 20
7 0 -7 -4 -12 -10 -12 -5 0 -10 -4 -10 -10 0 -5 4 -10 9 -10 13 0 22 30 14 45
-6 11 -13 9 -32 -6z"/>
<path d="M1826 2083 c-6 -14 -5 -15 5 -6 7 7 10 15 7 18 -3 3 -9 -2 -12 -12z"/>
<path d="M1415 2069 c-4 -6 -5 -12 -2 -15 2 -3 7 2 10 11 7 17 1 20 -8 4z"/>
<path d="M1457 2065 c12 -9 20 -22 17 -29 -8 -20 55 -75 93 -82 34 -6 57 2 48
17 -3 5 1 6 9 3 11 -4 16 0 16 11 0 12 -5 15 -16 11 -9 -3 -20 -6 -25 -6 -5 0
-9 -7 -9 -15 0 -8 -7 -15 -16 -15 -12 0 -15 7 -12 25 4 16 1 25 -8 25 -7 0
-19 9 -27 20 -8 11 -16 18 -19 15 -3 -3 -13 4 -23 15 -10 11 -25 20 -34 20
-11 0 -10 -4 6 -15z m93 -77 c0 -4 -11 -2 -25 4 -14 6 -25 17 -25 25 0 11 6
10 25 -4 13 -10 25 -21 25 -25z"/>
<path d="M2180 2060 c-9 -6 -10 -10 -3 -10 6 0 15 5 18 10 8 12 4 12 -15 0z"/>
<path d="M1708 2041 c-9 -10 -22 -21 -29 -23 -8 -3 -11 -8 -7 -12 3 -4 15 -2
26 5 16 10 26 10 45 2 22 -10 24 -10 20 8 -8 31 -37 41 -55 20z"/>
<path d="M1820 2010 c0 -5 5 -10 11 -10 5 0 7 5 4 10 -3 6 -8 10 -11 10 -2 0
-4 -4 -4 -10z"/>
<path d="M1783 1975 c0 -8 4 -12 9 -9 5 3 6 10 3 15 -9 13 -12 11 -12 -6z"/>
<path d="M1810 1976 c0 -2 8 -10 18 -17 15 -13 16 -12 3 4 -13 16 -21 21 -21
13z"/>
<path d="M945 1933 c-4 -22 0 -73 11 -128 l17 -92 -22 -32 c-12 -17 -20 -31
-17 -31 3 0 16 16 30 36 l24 35 -19 86 c-11 52 -16 101 -13 124 8 50 -1 51
-11 2z"/>
<path d="M1888 1953 c-23 -6 -23 -20 1 -33 24 -12 34 -13 27 -1 -4 5 0 12 6
14 8 3 6 6 -5 6 -10 1 -15 6 -12 11 3 6 5 9 3 9 -2 -1 -11 -3 -20 -6z"/>
<path d="M1741 1931 c-9 -6 -7 -10 8 -14 12 -3 21 -1 21 3 0 14 -15 19 -29 11z"/>
<path d="M1856 1896 c3 -8 12 -12 21 -9 12 5 12 7 1 14 -20 13 -28 11 -22 -5z"/>
<path d="M648 1780 c31 -21 41 -22 163 -18 114 4 152 10 138 21 -2 2 -49 -1
-103 -6 -93 -9 -140 -5 -211 18 -11 4 -5 -3 13 -15z"/>
<path d="M606 1550 c2 -47 11 -107 18 -135 17 -59 20 -46 6 22 -6 26 -15 82
-20 123 l-9 75 5 -85z"/>
<path d="M926 1568 c4 -55 2 -73 -16 -108 -12 -24 -24 -68 -27 -99 -3 -31 -13
-72 -23 -91 -31 -63 -43 -127 -36 -187 10 -84 10 -82 -9 -158 -14 -56 -18
-117 -19 -303 -1 -228 5 -304 17 -205 3 26 1 94 -4 150 -11 106 0 278 23 373
6 25 12 90 13 145 1 66 8 115 19 145 9 25 23 79 30 121 8 41 23 94 35 117 11
22 18 47 15 55 -3 8 -9 37 -14 63 -8 44 -9 43 -4 -18z"/>
<path d="M4755 1260 c66 -4 135 -10 154 -14 30 -7 33 -11 28 -36 -7 -33 8 -40
91 -40 59 0 65 10 24 39 -55 39 -165 61 -297 59 l-120 -1 120 -7z"/>
<path d="M4583 1253 c9 -2 25 -2 35 0 9 3 1 5 -18 5 -19 0 -27 -2 -17 -5z"/>
<path d="M662 1220 c0 -19 2 -27 5 -17 2 9 2 25 0 35 -3 9 -5 1 -5 -18z"/>
<path d="M677 1080 c3 -58 7 -107 9 -109 7 -8 2 124 -6 169 -6 31 -7 12 -3
-60z"/>
<path d="M686 883 c4 -26 11 -59 15 -73 8 -21 8 -19 4 9 -3 18 -5 51 -5 72 0
22 -5 39 -11 39 -7 0 -8 -16 -3 -47z"/>
<path d="M713 735 c0 -27 2 -38 4 -22 2 15 2 37 0 50 -2 12 -4 0 -4 -28z"/>
<path d="M702 575 c-1 -38 4 -69 14 -85 10 -15 13 -17 8 -5 -4 11 -11 49 -14
85 l-7 65 -1 -60z"/>
<path d="M4626 462 c-27 -48 -74 -120 -105 -161 -66 -89 -183 -282 -175 -290
4 -3 10 1 15 9 5 8 32 53 60 100 27 47 76 121 109 165 56 76 156 252 148 260
-2 2 -25 -35 -52 -83z"/>
<path d="M731 454 c34 -79 79 -138 79 -104 0 6 -4 10 -9 10 -5 0 -20 21 -32
46 -13 25 -27 48 -32 51 -5 3 -8 2 -6 -3z"/>
</g>
</svg>
